HIERARCHY
ROOT Hips
{
	OFFSET 0.00000 0.00000 0.00000
	CHANNELS 6 Xposition Yposition Zposition Zrotation Yrotation Xrotation 
	JOINT LHipJoint
	{
		OFFSET 0 0 0
		CHANNELS 3 Zrotation Yrotation Xrotation
		JOINT LeftHip
		{
			OFFSET 1.55766 -1.60504 1.11378
			CHANNELS 3 Zrotation Yrotation Xrotation
			JOINT LeftKnee
			{
				OFFSET 2.29047 -6.29302 0.00000
				CHANNELS 3 Zrotation Yrotation Xrotation
				JOINT LeftAnkle
				{
					OFFSET 2.52265 -6.93093 0.00000
					CHANNELS 3 Zrotation Yrotation Xrotation
					JOINT LeftToe
					{
						OFFSET 0.17633 -0.48446 2.02656
						CHANNELS 3 Zrotation Yrotation Xrotation
						End Site
						{
							OFFSET 0.00000 -0.00000 1.04989
						}
					}
				}
			}
		}
	}
	JOINT RHipJoint
	{
		OFFSET 0 0 0
		CHANNELS 3 Zrotation Yrotation Xrotation
		JOINT RightHip
		{
			OFFSET -1.48599 -1.60504 1.11378
			CHANNELS 3 Zrotation Yrotation Xrotation
			JOINT RightKnee
			{
				OFFSET -2.27280 -6.24448 0.00000
				CHANNELS 3 Zrotation Yrotation Xrotation
				JOINT RightAnkle
				{
					OFFSET -2.50834 -6.89161 0.00000
					CHANNELS 3 Zrotation Yrotation Xrotation
					JOINT RightToe
					{
						OFFSET -0.26967 -0.74090 2.08741
						CHANNELS 3 Zrotation Yrotation Xrotation
						End Site
						{
							OFFSET -0.00000 -0.00000 1.10614
						}
					}
				}
			}
		}
	}
	JOINT lowerback
	{
		OFFSET 0 0 0
		CHANNELS 3 Zrotation Yrotation Xrotation
		JOINT Chest
		{
			OFFSET 0.06481 2.02437 -0.08472
			CHANNELS 3 Zrotation Yrotation Xrotation
			JOINT Chest2
			{
				OFFSET 0.00015 1.96711 0.18069
				CHANNELS 3 Zrotation Yrotation Xrotation
				JOINT lowerneck
				{
					OFFSET 0 0 0
					CHANNELS 3 Zrotation Yrotation Xrotation
					JOINT Neck
					{
						OFFSET -0.29961 1.68293 -0.13041
						CHANNELS 3 Zrotation Yrotation Xrotation
						JOINT Head
						{
							OFFSET 0.59697 1.61501 -0.14669
							CHANNELS 3 Zrotation Yrotation Xrotation
							End Site
							{
								OFFSET 0.22973 1.74906 -0.10148
							}
						}
					}
				}
				JOINT LeftCollar
				{
					OFFSET 0 0 0
					CHANNELS 3 Zrotation Yrotation Xrotation
					JOINT LeftShoulder
					{
						OFFSET 3.37968 1.02893 0.31147
CHANNELS 3 Zrotation Xrotation Yrotation
						JOINT LeftElbow
						{
OFFSET 0 -5.198070 -0.000000
CHANNELS 3 Zrotation Xrotation Yrotation
							JOINT LeftWrist
							{
OFFSET 0 -3.093700 -0.000000
CHANNELS 3 Zrotation Xrotation Yrotation
								JOINT lhand
								{
									OFFSET 0 0 0
CHANNELS 3 Zrotation Xrotation Yrotation
									JOINT LFingers
									{
OFFSET 0 -0.672630 -0.000000
CHANNELS 3 Zrotation Xrotation Yrotation
										End Site
										{
OFFSET 0 -0.542290 -0.000000
										}
									}
								}
								JOINT LThumb
								{
OFFSET 0 0.000000 0.000000
CHANNELS 3 Zrotation Xrotation Yrotation
									End Site
									{
OFFSET 0 -0.550570 0.550570
									}
								}
							}
						}
					}
				}
				JOINT RightCollar
				{
					OFFSET 0 0 0
					CHANNELS 3 Zrotation Yrotation Xrotation
					JOINT RightShoulder
					{
						OFFSET -3.38254 0.96355 -0.16120
CHANNELS 3 Zrotation Xrotation Yrotation
						JOINT RightElbow
						{
OFFSET 0 -5.452220 -0.000000
CHANNELS 3 Zrotation Xrotation Yrotation
							JOINT RightWrist
							{
OFFSET 0 -3.012840 -0.000000
CHANNELS 3 Zrotation Xrotation Yrotation
								JOINT rhand
								{
									OFFSET 0 0 0
CHANNELS 3 Zrotation Xrotation Yrotation
									JOINT RFingers
									{
OFFSET 0 -0.622300 -0.000000
CHANNELS 3 Zrotation Xrotation Yrotation
										End Site
										{
OFFSET 0 -0.501710 -0.000000
										}
									}
								}
								JOINT RThumb
								{
OFFSET 0 0.000000 0.000000
CHANNELS 3 Zrotation Xrotation Yrotation
									End Site
									{
OFFSET 0 -0.509370 0.509370
									}
								}
							}
						}
					}
				}
			}
		}
	}
}
MOTION
Frames: 5
Frame Time: 0.008333333333333333
2.785862 16.536469 -22.997271 -183.414032 136.393863 -164.270102 0.000000 0.000000 0.000000 -15.597796 -1.460133 -17.945797 1.738950 8.299642 23.627974 1.838025 -1.513151 -25.220944 1.850686 -8.547853 -24.390981 0.000000 0.000000 0.000000 20.668185 6.270665 -43.450864 -4.275882 -12.518692 37.592629 -0.724259 2.323327 -15.455211 -1.075705 6.592444 -18.513507 -2.143189 0.877080 -2.746291 -1.791497 1.181154 -6.509381 -0.682750 0.684846 -5.199145 -28.964301 -13.604304 31.565160 45.989216 -24.586012 -16.202906 24.428911 -16.410515 1.321196 0.000000 0.000000 0.000000 20.509842 9.083402 -20.752594 18.894124 -29.286443 4.979131 27.675430 -45.773076 10.704107 0.000000 0.000000 0.000000 -7.125000 0.000000 0.000000 0.422600 17.931281 0.271943 0.000000 0.000000 0.000000 -7.755350 9.800811 -18.441802 -15.346124 -24.626021 -3.368886 -18.583060 24.207713 12.273838 0.000000 0.000000 0.000000 7.125000 0.000000 0.000000 7.831507 42.772140 0.433357
2.811310 16.528666 -22.864811 -183.726902 138.083366 -164.227876 0.000000 0.000000 0.000000 -15.404087 -0.915709 -17.148490 1.641803 8.076265 22.946065 1.800534 -0.070504 -25.382790 1.958758 -8.779458 -25.107965 0.000000 0.000000 0.000000 22.060071 5.169757 -43.537183 -4.186302 -12.404250 37.177456 -0.643501 3.238187 -14.401555 -0.878685 5.974289 -16.710241 -2.003494 0.741892 -3.193238 -1.669769 1.017222 -6.649859 -0.625697 0.600039 -5.092304 -29.059176 -13.428541 31.172613 45.868472 -24.403724 -15.842310 24.356779 -16.261290 1.388694 0.000000 0.000000 0.000000 19.542428 9.107808 -19.512315 19.595117 -30.151289 5.326582 27.349829 -46.909582 10.812804 0.000000 0.000000 0.000000 -7.125000 0.000000 0.000000 0.186377 17.844271 0.120360 0.000000 0.000000 0.000000 -7.098195 11.017024 -18.596651 -15.102236 -24.288276 -3.267919 -17.939041 24.503105 12.183385 0.000000 0.000000 0.000000 7.125000 0.000000 0.000000 8.387051 42.612253 0.498075
2.836916 16.521613 -22.717143 -184.138072 139.760541 -164.247324 0.000000 0.000000 0.000000 -15.088287 -0.419214 -16.208077 1.536130 7.824315 22.181897 1.739409 1.490888 -25.508146 2.127441 -9.126113 -26.190848 0.000000 0.000000 0.000000 23.368233 4.487763 -43.568684 -4.129369 -12.330580 36.911690 -0.544370 5.715333 -13.174680 -0.584186 4.887605 -13.589586 -1.774748 0.600700 -3.635891 -1.509659 0.844105 -6.784247 -0.580566 0.506853 -4.980828 -29.190109 -13.260156 30.610482 45.717254 -24.253542 -15.291115 24.213118 -16.107242 1.551168 0.000000 0.000000 0.000000 18.539966 9.068230 -18.609436 20.138324 -30.808447 5.602133 26.915656 -47.623614 10.849644 0.000000 0.000000 0.000000 -7.125000 0.000000 0.000000 -0.120642 17.849000 -0.077854 0.000000 0.000000 0.000000 -6.389194 12.121824 -18.958208 -14.735305 -23.775974 -3.118562 -17.124571 25.260046 11.747392 0.000000 0.000000 0.000000 7.125000 0.000000 0.000000 9.019852 42.081937 0.655693
2.862431 16.509093 -22.556565 -184.656633 141.500960 -164.329062 0.000000 0.000000 0.000000 -14.646642 0.055601 -15.258413 1.455140 7.624683 21.579785 1.671680 3.119833 -25.713389 2.366575 -9.591123 -27.662621 0.000000 0.000000 0.000000 24.441009 4.546938 -43.309763 -4.089718 -12.278811 36.725516 -0.427546 8.006543 -12.118781 -0.383368 3.975630 -11.008264 -1.435042 0.469903 -4.103789 -1.332062 0.682449 -6.902995 -0.580702 0.413977 -4.838230 -29.323567 -13.104161 29.917293 45.530356 -24.130549 -14.569707 24.003384 -15.949384 1.786826 0.000000 0.000000 0.000000 17.596147 9.038757 -18.150623 20.581088 -31.336037 5.830548 26.571625 -48.104247 10.859814 0.000000 0.000000 0.000000 -7.125000 0.000000 0.000000 -0.362647 17.873509 -0.233853 0.000000 0.000000 0.000000 -5.638077 13.053109 -19.541016 -14.275810 -23.127605 -2.935597 -16.068282 26.412914 11.202443 0.000000 0.000000 0.000000 7.125000 0.000000 0.000000 9.836409 41.423228 0.877411
2.886858 16.485341 -22.387671 -185.255508 143.360382 -164.474314 0.000000 0.000000 0.000000 -14.107624 0.512347 -14.422539 1.433894 7.571123 21.418869 1.598863 4.844948 -26.051518 2.743927 -10.266993 -29.847196 0.000000 0.000000 0.000000 25.278426 5.338134 -42.712545 -4.077030 -12.262252 36.666102 -0.358092 9.360425 -11.682231 -0.329364 3.688458 -10.201717 -1.018290 0.384181 -4.576857 -1.135109 0.576705 -7.015806 -0.605702 0.345542 -4.687355 -29.489278 -12.924509 29.210847 45.320021 -24.010288 -13.727397 23.790836 -15.787367 2.059059 0.000000 0.000000 0.000000 16.738323 9.096916 -18.281880 20.983588 -31.809069 6.041362 26.274724 -48.378023 10.843537 0.000000 0.000000 0.000000 -7.125000 0.000000 0.000000 -0.570108 17.921953 -0.366986 0.000000 0.000000 0.000000 -4.892521 13.817080 -20.526806 -13.723685 -22.338025 -2.722384 -14.601467 28.186919 10.640851 0.000000 0.000000 0.000000 7.125000 0.000000 0.000000 10.995405 40.721470 1.177192
